<svg xmlns="http://www.w3.org/2000/svg" viewBox="0 0 100 100">
  <!-- Bulb shape -->
  <path d="M50 5c-16.6 0-30 13.4-30 30 0 9.5 4.4 17.7 11.5 23.2 2.4 1.9 3.5 4.7 3.5 7.8v6h30v-6c0-3.1 1.1-5.9 3.5-7.8C75.6 52.7 80 44.5 80 35c0-16.6-13.4-30-30-30z" fill="#2d297f"/>
  
  <!-- Bulb base -->
  <rect x="40" y="72" width="20" height="5" fill="#4a43b5"/>
  <rect x="40" y="79" width="20" height="5" fill="#4a43b5"/>
  <polygon points="44,86 56,86 52,91 48,91" fill="#2d297f"/>

  <!-- Exclamation mark -->
  <rect x="47" y="28" width="6" height="28" rx="2" fill="#ffffff"/>
  <circle cx="50" cy="63" r="4" fill="#ffffff"/>

  <!-- Accent circle (yellow dot) -->
  <circle cx="77" cy="20" r="9" fill="#fbbd08"/>
</svg>
